<?xml version="1.0" encoding="UTF-8" standalone="no"?>
<!-- Created with Inkscape (http://www.inkscape.org/) -->

<svg
   width="63.412048"
   height="121.0258"
   viewBox="0 0 63.412048 121.0258"
   version="1.1"
   id="svg1"
   xmlns="http://www.w3.org/2000/svg"
   xmlns:svg="http://www.w3.org/2000/svg">
  <defs
     id="defs1" />
  <g
     id="layer1"
     transform="translate(0.07925782,-2.4000456)">
    <g
       id="g18"
       transform="matrix(0.21259941,0,0,0.21259941,-46.503832,-139.68752)">
      <g
         id="g19"
         transform="matrix(1,0,0,1.8479696,-192.66831,-1098.8156)">
        <path
           style="fill:#00a4e8;fill-opacity:1;stroke-width:0.885259"
           d="m 411.03474,1032.2814 72.09113,-75.9985 18.06622,-0.017 0.0316,19.46582 -71.973,75.82928 -18.10272,0.034 z"
           id="path1-8" />
        <path
           style="fill:#00a4e8;fill-opacity:1;stroke-width:0.885259"
           d="m 619.11599,1245.0022 72.09113,-75.9987 18.06623,-0.017 0.0315,19.4659 -71.973,75.8294 -18.10272,0.034 z"
           id="path1-8-2" />
        <path
           style="fill:#00a4e8;fill-opacity:1;stroke-width:0.885259"
           d="m 411.3148,1243.366 72.09112,-75.9987 18.06625,-0.017 0.0316,19.4659 -71.97303,75.8294 -18.10271,0.034 z"
           id="path1-8-3" />
        <path
           style="fill:#00a4e8;fill-opacity:1;stroke-width:0.885259"
           d="m 618.55915,1032.4157 72.09112,-75.9985 18.06624,-0.017 0.0315,19.46582 -71.97302,75.82928 -18.10271,0.034 z"
           id="path1-8-9" />
      </g>
    </g>
  </g>
</svg>
